<svg width="32" height="32" viewBox="0 0 32 32" fill="none" xmlns="http://www.w3.org/2000/svg">
<path d="M13.3333 27.4233C8.76191 28.9664 4.95239 27.4233 2.66667 22.6667" stroke="white" stroke-width="1.5" stroke-linecap="round" stroke-linejoin="round"/>
<path d="M13.3333 29.3333V25.0105C13.3333 24.2128 13.5785 23.5195 13.9739 22.8932C14.2451 22.4635 14.0593 21.8539 13.5695 21.7192C9.51192 20.6037 6.66667 18.8103 6.66667 12.8614C6.66667 11.3148 7.1734 9.86075 8.06415 8.5952C8.28583 8.28024 8.39665 8.12277 8.42331 7.98013C8.44995 7.8375 8.40363 7.65136 8.31096 7.27909C7.93384 5.76389 7.95828 4.15492 8.52429 2.70431C8.52429 2.70431 9.69389 2.32323 12.356 3.98625C12.9638 4.36596 13.2677 4.55581 13.5353 4.59828C13.8029 4.64075 14.1608 4.55179 14.8764 4.37388C15.8551 4.1306 16.8635 4 18 4C19.1365 4 20.1449 4.1306 21.1236 4.37388C21.8392 4.55179 22.1971 4.64075 22.4647 4.59828C22.7324 4.55581 23.0363 4.36596 23.644 3.98625C26.3061 2.32323 27.4757 2.70431 27.4757 2.70431C28.0417 4.15492 28.0661 5.76389 27.6891 7.27909C27.5964 7.65136 27.55 7.8375 27.5767 7.98013C27.6033 8.12276 27.7141 8.28025 27.9359 8.5952C28.8265 9.86075 29.3333 11.3148 29.3333 12.8614C29.3333 18.8103 26.4881 20.6037 22.4305 21.7192C21.9407 21.8539 21.7549 22.4635 22.0261 22.8932C22.4215 23.5195 22.6667 24.2128 22.6667 25.0105V29.3333" stroke="white" stroke-width="1.5" stroke-linecap="round" stroke-linejoin="round"/>
</svg>
