<svg width="32" height="32" viewBox="0 0 32 32" fill="none" xmlns="http://www.w3.org/2000/svg">
<path d="M12.724 19.2747L19.2747 12.724" stroke="black" stroke-width="1.5" stroke-linecap="round"/>
<path d="M11.2706 16.1048C11.722 16.4231 12.3459 16.3151 12.6641 15.8636C12.9822 15.4121 12.8742 14.7883 12.4228 14.4701L11.2706 16.1048ZM17.5299 19.5772C17.2117 19.1257 16.5879 19.0177 16.1364 19.336C15.6849 19.6541 15.5769 20.278 15.8952 20.7295L17.5299 19.5772ZM6.32785 25.6721C5.39983 24.7441 4.76157 24.1039 4.32541 23.5617C3.90107 23.0343 3.74571 22.6911 3.69672 22.3819L1.72133 22.6947C1.84724 23.4896 2.23545 24.1545 2.76711 24.8155C3.28695 25.4616 4.01712 26.1899 4.91364 27.0864L6.32785 25.6721ZM4.91364 16.9136C4.01712 17.8101 3.28695 18.5384 2.76711 19.1845C2.23545 19.8455 1.84724 20.5104 1.72133 21.3053L3.69672 21.6181C3.74571 21.3089 3.90107 20.9657 4.32541 20.4383C4.76157 19.8961 5.39983 19.2559 6.32785 18.3279L4.91364 16.9136ZM3.69672 22.3819C3.65665 22.1288 3.65665 21.8712 3.69672 21.6181L1.72133 21.3053C1.64844 21.7656 1.64844 22.2344 1.72133 22.6947L3.69672 22.3819ZM13.6721 25.6721C12.7441 26.6001 12.1039 27.2384 11.5618 27.6745C11.0343 28.0989 10.6911 28.2543 10.3818 28.3033L10.6947 30.2787C11.4895 30.1528 12.1546 29.7645 12.8154 29.2329C13.4616 28.7131 14.1899 27.9829 15.0864 27.0864L13.6721 25.6721ZM4.91364 27.0864C5.81017 27.9829 6.5384 28.7131 7.18457 29.2329C7.84541 29.7645 8.51044 30.1528 9.30533 30.2787L9.6182 28.3033C9.30891 28.2543 8.96571 28.0989 8.43823 27.6745C7.89608 27.2384 7.25588 26.6001 6.32785 25.6721L4.91364 27.0864ZM10.3818 28.3033C10.1289 28.3433 9.87116 28.3433 9.6182 28.3033L9.30533 30.2787C9.76559 30.3516 10.2344 30.3516 10.6947 30.2787L10.3818 28.3033ZM15.0864 27.0864C15.9829 26.1899 16.7131 25.4616 17.2329 24.8155C17.7645 24.1545 18.1528 23.4896 18.2787 22.6947L16.3033 22.3819C16.2543 22.6911 16.0989 23.0343 15.6745 23.5617C15.2384 24.1039 14.6001 24.7441 13.6721 25.6721L15.0864 27.0864ZM16.3033 21.6181C16.3433 21.8712 16.3433 22.1288 16.3033 22.3819L18.2787 22.6947C18.3516 22.2344 18.3516 21.7656 18.2787 21.3053L16.3033 21.6181ZM6.32785 18.3279C7.25588 17.3999 7.89608 16.7616 8.43823 16.3255C8.96571 15.9011 9.30891 15.7457 9.6182 15.6967L9.30533 13.7213C8.51044 13.8472 7.84541 14.2355 7.18457 14.7671C6.5384 15.2869 5.81017 16.0171 4.91364 16.9136L6.32785 18.3279ZM10.6947 13.7213C10.2344 13.6484 9.76559 13.6484 9.30533 13.7213L9.6182 15.6967C9.87116 15.6567 10.1288 15.6567 10.3818 15.6967L10.6947 13.7213ZM12.4228 14.4701C11.8858 14.0916 11.3316 13.8223 10.6947 13.7213L10.3818 15.6967C10.6314 15.7363 10.9019 15.8449 11.2706 16.1048L12.4228 14.4701ZM15.8952 20.7295C16.1551 21.0981 16.2637 21.3687 16.3033 21.6181L18.2787 21.3053C18.1777 20.6684 17.9084 20.1143 17.5299 19.5772L15.8952 20.7295Z" fill="black"/>
<path d="M14.4701 12.4228C14.7883 12.8742 15.4121 12.9822 15.8636 12.6641C16.3151 12.3459 16.4231 11.722 16.1048 11.2706L14.4701 12.4228ZM20.7295 15.8952C20.278 15.5769 19.6541 15.6849 19.336 16.1364C19.0177 16.5879 19.1257 17.2117 19.5772 17.5299L20.7295 15.8952ZM16.9136 4.91364C16.0171 5.81017 15.2869 6.5384 14.7671 7.18457C14.2355 7.84541 13.8472 8.51044 13.7213 9.30533L15.6967 9.6182C15.7457 9.30891 15.9011 8.96571 16.3255 8.43823C16.7616 7.89608 17.3999 7.25588 18.3279 6.32785L16.9136 4.91364ZM15.6967 10.3818C15.6567 10.1288 15.6567 9.87116 15.6967 9.6182L13.7213 9.30533C13.6484 9.76557 13.6484 10.2344 13.7213 10.6947L15.6967 10.3818ZM25.6721 13.6721C24.7441 14.6001 24.1039 15.2384 23.5617 15.6745C23.0343 16.0989 22.6911 16.2543 22.3819 16.3033L22.6947 18.2787C23.4896 18.1528 24.1545 17.7645 24.8155 17.2329C25.4616 16.7131 26.1899 15.9829 27.0864 15.0864L25.6721 13.6721ZM22.3819 16.3033C22.1288 16.3433 21.8712 16.3433 21.6181 16.3033L21.3053 18.2787C21.7656 18.3516 22.2344 18.3516 22.6947 18.2787L22.3819 16.3033ZM25.6721 6.32785C26.6001 7.25588 27.2384 7.89608 27.6745 8.43823C28.0989 8.96571 28.2543 9.30891 28.3033 9.6182L30.2787 9.30533C30.1528 8.51045 29.7645 7.84541 29.2329 7.18457C28.7131 6.5384 27.9829 5.81017 27.0864 4.91364L25.6721 6.32785ZM27.0864 15.0864C27.9829 14.1899 28.7131 13.4616 29.2329 12.8154C29.7645 12.1546 30.1528 11.4896 30.2787 10.6947L28.3033 10.3818C28.2543 10.6911 28.0989 11.0343 27.6745 11.5618C27.2384 12.1039 26.6001 12.7441 25.6721 13.6721L27.0864 15.0864ZM28.3033 9.6182C28.3433 9.87117 28.3433 10.1289 28.3033 10.3818L30.2787 10.6947C30.3516 10.2344 30.3516 9.76557 30.2787 9.30533L28.3033 9.6182ZM27.0864 4.91364C26.1899 4.01712 25.4616 3.28695 24.8155 2.76711C24.1545 2.23545 23.4896 1.84724 22.6947 1.72133L22.3819 3.69672C22.6911 3.74571 23.0343 3.90107 23.5617 4.32541C24.1039 4.76157 24.7441 5.39983 25.6721 6.32785L27.0864 4.91364ZM18.3279 6.32785C19.2559 5.39983 19.8961 4.76157 20.4383 4.32541C20.9657 3.90107 21.3089 3.74571 21.6181 3.69672L21.3053 1.72133C20.5104 1.84724 19.8455 2.23545 19.1845 2.76711C18.5384 3.28695 17.8101 4.01711 16.9136 4.91364L18.3279 6.32785ZM22.6947 1.72133C22.2344 1.64844 21.7656 1.64844 21.3053 1.72133L21.6181 3.69672C21.8712 3.65665 22.1288 3.65665 22.3819 3.69672L22.6947 1.72133ZM16.1048 11.2706C15.8449 10.9019 15.7363 10.6314 15.6967 10.3818L13.7213 10.6947C13.8223 11.3316 14.0916 11.8858 14.4701 12.4228L16.1048 11.2706ZM19.5772 17.5299C20.1143 17.9084 20.6684 18.1777 21.3053 18.2787L21.6181 16.3033C21.3687 16.2637 21.0981 16.1551 20.7295 15.8952L19.5772 17.5299Z" fill="black"/>
</svg>
